<?xml version="1.0" encoding="UTF-8"?>
<!-- Variante alternative : logo réseau / noyau crypto stylisé -->
<svg width="256" height="256" viewBox="0 0 256 256" fill="none" xmlns="http://www.w3.org/2000/svg">
  <defs>
    <radialGradient id="bg" cx="0" cy="0" r="1" gradientUnits="userSpaceOnUse" gradientTransform="translate(96 64) rotate(45) scale(260 240)">
      <stop offset="0%" stop-color="#101a27"/>
      <stop offset="55%" stop-color="#182335"/>
      <stop offset="100%" stop-color="#0d141d"/>
    </radialGradient>
    <linearGradient id="ring" x1="32" y1="32" x2="224" y2="224" gradientUnits="userSpaceOnUse">
      <stop offset="0%" stop-color="#7FFFD4"/>
      <stop offset="50%" stop-color="#63E2F8"/>
      <stop offset="100%" stop-color="#7B7BFF"/>
    </linearGradient>
    <linearGradient id="pulse" x1="80" y1="80" x2="176" y2="176" gradientUnits="userSpaceOnUse">
      <stop offset="0%" stop-color="#7FFFD4" stop-opacity="0.9"/>
      <stop offset="100%" stop-color="#7B7BFF" stop-opacity="0.15"/>
    </linearGradient>
    <linearGradient id="nodeGrad" x1="0" y1="0" x2="1" y2="1">
      <stop stop-color="#7FFFD4"/>
      <stop offset="1" stop-color="#7B7BFF"/>
    </linearGradient>
    <filter id="glow" x="-40%" y="-40%" width="180%" height="180%">
      <feGaussianBlur stdDeviation="14" result="b"/>
      <feMerge>
        <feMergeNode in="b"/>
      </feMerge>
    </filter>
  </defs>
  <!-- Fond -->
  <rect x="10" y="10" width="236" height="236" rx="48" fill="url(#bg)" stroke="url(#ring)" stroke-width="2"/>
  <!-- Anneau externe -->
  <circle cx="128" cy="128" r="86" stroke="url(#ring)" stroke-width="10" stroke-linecap="round" stroke-dasharray="8 18" opacity="0.55"/>
  <!-- Disque halo -->
  <circle cx="128" cy="128" r="70" fill="url(#pulse)" filter="url(#glow)"/>
  <!-- Hexagone réseau -->
  <g stroke="url(#ring)" stroke-width="4" stroke-linecap="round" stroke-linejoin="round">
    <path d="M128 88 168 108 168 148 128 168 88 148 88 108 128 88Z" fill="#121d29"/>
    <!-- Connexions internes -->
    <path d="M128 88 128 128 168 108 88 108 128 168 168 148 88 148 128 88" opacity="0.65"/>
  </g>
  <!-- Nœuds -->
  <g fill="url(#nodeGrad)">
    <circle cx="128" cy="88" r="7"/>
    <circle cx="168" cy="108" r="7"/>
    <circle cx="168" cy="148" r="7"/>
    <circle cx="128" cy="168" r="7"/>
    <circle cx="88" cy="148" r="7"/>
    <circle cx="88" cy="108" r="7"/>
    <circle cx="128" cy="128" r="9"/>
  </g>
  <!-- Symbole central (jeton stylisé) -->
  <g>
    <circle cx="128" cy="128" r="26" fill="#0f1824" stroke="url(#ring)" stroke-width="3"/>
    <path d="M118 138c0-6 4-10 10-10s10-4 10-10-4-10-10-10-10 4-10 10" stroke="url(#ring)" stroke-width="4" stroke-linecap="round" stroke-linejoin="round" fill="none"/>
  </g>
  <!-- Monogramme discret -->
  <path d="M92 206l10-28 12 24 12-24 10 28" stroke="url(#ring)" stroke-width="5" stroke-linecap="round" stroke-linejoin="round" fill="none" opacity="0.85"/>
</svg>
